<?xml version="1.0" standalone="no"?>
<!DOCTYPE svg PUBLIC "-//W3C//DTD SVG 20010904//EN"
 "http://www.w3.org/TR/2001/REC-SVG-20010904/DTD/svg10.dtd">
<svg version="1.0" xmlns="http://www.w3.org/2000/svg"
 width="512.000000pt" height="512.000000pt" viewBox="0 0 512.000000 512.000000"
 preserveAspectRatio="xMidYMid meet">

<g transform="translate(0.000000,512.000000) scale(0.100000,-0.100000)"
fill="white" stroke="none">
<path d="M628 4421 c-156 -50 -271 -165 -318 -319 -19 -62 -20 -95 -20 -1292
0 -1192 1 -1230 20 -1291 35 -114 97 -197 194 -261 120 -78 121 -78 712 -78
l524 0 0 -275 0 -275 -239 0 -239 0 -31 -25 c-61 -52 -60 -143 2 -189 l28 -21
1307 -3 c875 -2 1319 0 1343 7 73 22 109 103 75 169 -30 58 -50 62 -311 62
l-235 0 0 275 0 275 523 0 c315 0 539 4 566 11 176 40 326 201 360 384 15 82
15 2387 0 2471 -24 134 -137 288 -252 343 -111 53 -7 51 -2052 50 -1810 0
-1903 -1 -1957 -18z m3880 -237 c47 -19 97 -67 125 -119 l22 -40 3 -987 2
-988 -2065 0 -2065 0 0 983 c0 967 1 983 21 1027 27 60 54 88 114 116 l50 24
1878 0 c1674 0 1882 -2 1915 -16z m150 -2481 c-4 -120 -20 -163 -80 -220 -71
-68 88 -63 -1979 -63 -1446 0 -1881 3 -1913 12 -54 16 -128 90 -144 144 -6 23
-12 85 -12 138 l0 96 2066 0 2066 0 -4 -107z m-1458 -798 l0 -275 -607 2 -608
3 -3 260 c-1 143 0 265 3 272 3 10 130 13 610 13 l605 0 0 -275z"/>
<path d="M1540 3944 c-66 -24 -90 -57 -90 -125 0 -33 6 -47 34 -75 32 -32 38
-34 104 -34 52 0 75 -5 91 -17 16 -14 51 -122 146 -453 70 -243 137 -453 150
-476 28 -48 69 -85 129 -117 41 -22 47 -22 552 -25 498 -3 513 -2 567 18 67
25 134 87 164 150 23 51 93 436 93 516 0 28 -7 72 -16 98 -22 64 -100 147
-166 177 l-53 24 -639 5 -639 5 -17 60 c-35 123 -88 193 -183 242 -41 21 -69
27 -132 30 -44 1 -87 0 -95 -3z m1664 -584 c15 -5 28 -20 32 -36 11 -42 -57
-425 -78 -446 -17 -17 -51 -18 -488 -18 l-470 0 -14 23 c-11 17 -146 462 -146
482 0 10 1138 5 1164 -5z"/>
<path d="M2192 2544 c-49 -25 -75 -69 -80 -133 -2 -43 2 -63 17 -89 24 -38 70
-68 118 -77 46 -8 120 28 150 74 43 64 23 168 -40 213 -40 29 -121 34 -165 12z"/>
<path d="M2945 2546 c-103 -45 -126 -180 -44 -258 67 -64 151 -64 218 0 128
122 -12 329 -174 258z"/>
</g>
</svg>